<?xml version="1.0" ?><svg data-name="Слой 1" id="b0bd7497-a371-4434-a9c0-e6efec0bb303" viewBox="0 0 100 100" xmlns="http://www.w3.org/2000/svg"><title/><polygon points="89.723 52.719 79.51 75.288 64.051 75.288 63.504 73.922 47.264 73.922 56.675 54.302 89.723 52.719" style="fill:#374c54"/><polygon points="87.322 54.053 57.6 55.533 49.409 72.801 79.007 72.507 87.322 54.053" style="fill:#ffde00"/><path d="M73.19929,55.08772s-3.0964,3.04724-2.72694,8.9092a11.09633,11.09633,0,0,0,5.39452,8.57379l-17.46265.14092s6.734-2.66158,6.29738-8.73942a15.25148,15.25148,0,0,0-3.8879-9.40714Z" style="fill:#ff8c01"/><path d="M64.58021,62.82729c.05178.37016.09313.75151.12139,1.14492a7.39212,7.39212,0,0,1-1.4021,4.91568V68.888a3.20984,3.20984,0,0,0,2.01559-2.19431,1.58,1.58,0,0,0,.82849,1.28546c-.03061-.86254.99194-1.61634.99194-1.61634a3.71006,3.71006,0,0,1,.78785,2.75509,3.64688,3.64688,0,0,0,1.074-2.75509,6.09265,6.09265,0,0,0,3.51708,3.16186,10.25114,10.25114,0,0,1-2.04215-5.52775c-.02548-.40371-.03307-.7927-.02777-1.16963Z" style="fill:#f07101"/><path d="M66.8767,64.95286A1.48736,1.48736,0,0,1,65.471,66.06837a1.22914,1.22914,0,0,1-1.26418-1.069s-3.12548,1.49866-3.67949-1.10138,2.31-2.618,2.72012-1.60821a1.0499,1.0499,0,0,1,.72445-1.50619c1.25218-.39815,1.38393.63678,1.38393.63678A1.63934,1.63934,0,0,1,67.04627,59.814,1.75619,1.75619,0,0,1,68.92137,61.24a2.2528,2.2528,0,0,1,2.09578-1.22588,1.61964,1.61964,0,0,1,1.48349,1.47739A2.36657,2.36657,0,0,1,75.608,62.792c.843,2.1613-2.4846,3.8328-3.92489,2.46038a1.63043,1.63043,0,0,1-1.34492,1.10935c-.99467.04206-1.64089-1.07891-1.64089-1.07891a1.02816,1.02816,0,0,1-1.0944.78681C66.7036,65.99761,66.8767,64.95286,66.8767,64.95286Z" style="fill:#ffab02"/><path d="M72.0972,63.83827S71.70652,65.105,70.5969,65.155s-1.83047-1.28055-1.83047-1.28055a1.17,1.17,0,0,1-1.22092.9339c-1.00324-.08549-.81011-1.3255-.81011-1.3255a1.70306,1.70306,0,0,1-1.56816,1.324A1.41647,1.41647,0,0,1,63.757,63.538s-2.03,1.03385-3.26661.15254c.01014.06754.02176.13612.037.20748.554,2.6,3.67954,1.10138,3.67954,1.10138a1.22907,1.22907,0,0,0,1.26413,1.069,1.48734,1.48734,0,0,0,1.40569-1.11546s-.1731,1.0447.7262,1.11671a1.028,1.028,0,0,0,1.0944-.78681s.64622,1.121,1.64089,1.0788a1.63021,1.63021,0,0,0,1.34492-1.10924c1.25878,1.19948,3.95888.07376,4.0567-1.67182C74.713,64.50408,73.04173,64.79584,72.0972,63.83827Z" style="fill:#f07101"/><path d="M60.8137,54.56507a13.95186,13.95186,0,0,1,2.97686,5.02774l.00082.00006a2.37734,2.37734,0,0,1,.681-2.30463,3.30356,3.30356,0,0,0,1.09593,1.92661c-.15658-.822.70454-1.67477.70454-1.67477.06552,1.33826,1.8422,1.67477,1.8422,1.67477a2.01273,2.01273,0,0,1,1.85083-1.19271,3.07086,3.07086,0,0,1,.88626,1.64334l.00082-.0012a10.38808,10.38808,0,0,1,2.34636-4.57656Z" style="fill:#f07101"/><path d="M63.03278,56.18424s-2.51068,2.73677-5.86087.0604c0,0-3.4329.868-4.3399-2.19884-1.21486-4.10809,2.88319-4.13144,2.88319-4.13144s.05641-4.05609,3.7885-4.55681,5.14613,1.28895,5.14613,1.28895a4.16906,4.16906,0,0,1,4.37465-2.90109c3.38505.35293,3.66973,2.16523,3.66973,2.16523a5.03339,5.03339,0,0,1,5.58738.1419c2.68935,1.66757,1.37051,3.58631,1.37051,3.58631s2.76916.65872,2.40331,3.22264A2.48855,2.48855,0,0,1,79.37124,55.192a3.54165,3.54165,0,0,1-4.67493.94748s-1.91891,2.34183-4.49369-.27976a2.29454,2.29454,0,0,1-2.43807,1.64983,2.02561,2.02561,0,0,1-1.67247-2.20025S65.54624,57.30357,63.03278,56.18424Z" style="fill:#f07101"/><path d="M81.72109,51.07439a3.68579,3.68579,0,0,0-2.069-1.43554,2.20113,2.20113,0,0,0-.09422-2.43173l-.01162-.00279.00507-.00725a4.16055,4.16055,0,0,0-1.26974-1.14454,5.03339,5.03339,0,0,0-5.58738-.1419s-.28468-1.8123-3.66973-2.16523a4.16906,4.16906,0,0,0-4.37465,2.90109s-1.414-1.78967-5.14613-1.28895-3.78845,4.55681-3.78845,4.55681a3.4826,3.4826,0,0,0-2.78471,1.40821c1.079,2.4648,4.23318,1.75862,4.23318,1.75862,3.37278,2.50752,5.8522.00366,5.8522.00366,2.52154,1.06,3.04631-.77759,3.04631-.77759a1.92316,1.92316,0,0,0,1.69261,2.05044,2.20723,2.20723,0,0,0,2.41794-1.5c2.59791,2.449,4.49047.30416,4.49047.30416,3.11364,1.38649,4.65894-.82817,4.65894-.82817A2.49026,2.49026,0,0,0,81.72109,51.07439Z" style="fill:#ffab02"/><path d="M52.72355,69.59107c-.66766-.16416-1.36118-.364-2.08285-.60945-6.61855-2.25165-8.78231-8.63184-9.46393-11.85017a1.80167,1.80167,0,0,0-3.557.54207,15.81155,15.81155,0,0,0,8.32834,12.71729,20.33421,20.33421,0,0,0,6.44653,2.06643Z" style="fill:#486962"/><polygon points="26.579 48.697 25.416 51.578 40.052 55.903 40.932 53.374 26.579 48.697" style="fill:#7bc8c9"/><path d="M14.83317,75.28805H37.0845a6.287,6.287,0,0,0,.64065-2.657c.2825-5.34433,2.56153-10.85037,3.05325-12.81543s.624-3.71965-1.703-4.35905-10.88-4.0837-14.81122-5.21989c-5.11988-1.47978-7.666-.55347-9.45307,4.15561s-2.06,12.91271-.50372,19.12858C14.4737,74.1852,14.6497,74.76862,14.83317,75.28805Z" style="fill:#a9e7ea"/><path d="M25.57574,48.97747c-4.14622-1.36-8.09217-4.42419.07982-12.41729s16.11112-5.68394,23.18882-1.55578,5.60615,12.024,2.74882,15.38924-5.10423,5.43151-10.894,3.58277S25.57574,48.97747,25.57574,48.97747Z" style="fill:#a9e7ea"/><path d="M29.88334,37.40744c3.70165-3.62062,7.36008-5.33113,10.92774-5.77642-4.84962-1.0711-9.95538-.15717-15.15552,4.92916-8.172,7.9931-4.2261,11.05731-.07982,12.41729,0,0,.15118.051.42592.14353C23.78673,47.04028,23.62355,43.53019,29.88334,37.40744Z" style="fill:#caf6f6"/><path d="M31.61763,38.4876c-2.91641,4.11426-4.16253,8.92274,6.78549,12.89536,9.25242,3.3574,12.42236-1.35343,13.19526-4.177s.62587-6.9568-5.43675-10.63908S35.173,33.47181,31.61763,38.4876Z" style="fill:#e8ffff"/><path d="M39.63408,44.4823a1.0863,1.0863,0,1,1-.2826-1.51A1.08631,1.08631,0,0,1,39.63408,44.4823Z" style="fill:#486962"/><path d="M46.57489,47.795a1.08627,1.08627,0,1,1-.28254-1.51A1.08629,1.08629,0,0,1,46.57489,47.795Z" style="fill:#486962"/><path d="M35.30858,60.29539h0a.61605.61605,0,0,1-.44779-.74437l1.33493-5.36468a.616.616,0,0,1,.74437-.44775h0a.61615.61615,0,0,1,.44774.74442L36.053,59.84759A.61607.61607,0,0,1,35.30858,60.29539Z" style="fill:#7bc8c9"/><path d="M49.02043,26.57469a11.95567,11.95567,0,0,1,2.84228-.87868,1.24774,1.24774,0,1,1,.06241.73051,11.2648,11.2648,0,0,0-2.62847.82254A9.15812,9.15812,0,0,0,44.2018,32.9993l-.69341-.22227A9.99665,9.99665,0,0,1,49.02043,26.57469Z" style="fill:#a9e7ea"/><path d="M14.83317,75.28805h4.63554c-.07823-.26814-.15494-.55-.22963-.84829-1.55632-6.21582-1.28349-14.41939.50372-19.12853,1.24094-3.2701,2.849-4.7147,5.42977-4.79751-.32292-.10246-.62854-.19613-.90842-.27709-5.11988-1.47979-7.666-.55342-9.45307,4.15577-1.78716,4.709-2.06,12.91265-.50372,19.12841C14.4737,74.1852,14.64965,74.76862,14.83317,75.28805Z" style="fill:#caf6f6"/><path d="M61.137,71.71173a1.74172,1.74172,0,0,1-1.17334-1.37046l-.276-1.173-.67383-.32537.47672.52761.12324,2.433a.32253.32253,0,0,1-.4371.3167,1.10042,1.10042,0,0,1-.79189-1.05086l.06918-.92713-.41376-.19837.20988.43018-.58561,1.71721a.4225.4225,0,0,1-.68855.17415,1.24247,1.24247,0,0,1-.37966-.79009c-.09564-.88866.0413-1.10776.0413-1.10776l-.97612-.17813A2.8796,2.8796,0,0,1,53.3953,72.5633a1.82426,1.82426,0,0,1-2.1828-1.46348l2.44658-2.79524s2.04837-2.13877,3.42521-1.983,3.65892,2.18645,3.65892,2.18645l.891,2.66824A.41622.41622,0,0,1,61.137,71.71173Z" style="fill:#486962"/><path d="M39.98078,29.68844a1.26645,1.26645,0,0,0-1.18981-.83286h-.71224l-.10578-.25216a.86049.86049,0,0,0-1.03619-.49264l-2.53425.7448-3.35237,2.03681c-.03852-.00568-.075-.01686-.11446-.01954a40.25192,40.25192,0,0,0-9.43993.32483,19.97036,19.97036,0,0,0-4.75283,1.37706,12.86312,12.86312,0,0,0-2.27637,1.293,9.88576,9.88576,0,0,0-4.10683,6.91894,11.14984,11.14984,0,0,0,.67252,5.35923,13.04453,13.04453,0,0,0,2.8726,4.4471,15.31665,15.31665,0,0,0,1.97063,1.70946,18.65694,18.65694,0,0,0,2.18678,1.35322l.0503.0258a2.03578,2.03578,0,1,0,1.80712-3.64856l-.023-.01134a14.683,14.683,0,0,1-1.70467-.98513,11.35807,11.35807,0,0,1-1.49506-1.22,9.18311,9.18311,0,0,1-2.12568-3.06634,7.41484,7.41484,0,0,1-.56351-3.55254,6.44526,6.44526,0,0,1,1.25076-3.27327,7.8092,7.8092,0,0,1,2.911-2.25907,16.68082,16.68082,0,0,1,3.92107-1.25234,37.20608,37.20608,0,0,1,8.67243-.54343l.01233.00049a1.49286,1.49286,0,0,0,.82822-.21222,10.61617,10.61617,0,0,0,1.57051-.04927,4.20665,4.20665,0,0,0,2.95723-2.20566l.03126.18c.14053,1.426,1.34126,1.10405,1.34126,1.10405l-.2491-1.76539.15587-.01587.22651.65582c.3663,1.38529,1.5003.87579,1.5003.87579L38.62451,30.782l.11321-.01157.6825,1.08605a1.7713,1.7713,0,0,0,1.49975.82882h.15281Z" style="fill:#486962"/><polygon points="72.405 75.288 34.522 75.288 33.174 72.999 74.9 72.999 72.405 75.288" style="fill:#374c54"/></svg>