<?xml version="1.0" ?><svg data-name="Слой 1" id="ec451a29-4c4c-4fa6-9207-ee935e77a741" viewBox="0 0 100 100" xmlns="http://www.w3.org/2000/svg"><title/><path d="M28.13586,24.83053A6.71029,6.71029,0,0,0,35.45257,36.046a8.10537,8.10537,0,1,1-7.31671-11.2155Z" style="fill:#ffde00"/><polygon points="21.273 60.521 9.177 57.122 15.245 61.705 9.977 62.089 13.366 63.646 5.815 67.311 13.544 68.185 57.16 66.435 49.184 63.438 55.435 59.542 46.216 58.995 47.65 55.932 42.838 57.711 45.118 45.784 37.259 56.788 36.279 48.419 32.035 57.293 29.086 55.178 29.029 61.439 24.259 56.492 24.633 60.953 22.105 58.905 21.273 60.521" style="fill:#fff600"/><polygon points="36.504 64.9 27.657 65.269 28.469 67.667 34.681 67.419 36.504 64.9" style="fill:#800a04"/><path d="M25.37915,52.05374l-1.79094-1.47622a7.27856,7.27856,0,0,0-5.16545,3.165c-2.11156,3.01189-1.59385,5.22527-1.59385,5.22527l2.18092,1.56841Z" style="fill:#800a04"/><path d="M26.18309,51.41016a8.24553,8.24553,0,0,0-7.06777,3.92255,7.35669,7.35669,0,0,0-.52125,7.79555l7.25476,4.6478,2.61971-.10936L30.13035,65.405l1.719,2.09987,1.08659-1.19645,1.74466,1.11023,17.36486-.725a11.92534,11.92534,0,0,0,.59252-8.55052s-7.74579-.0105-11.97928,4.78159l-.76626,2.81339-2.0182-4.10566Z" style="fill:#ea1a0c"/><path d="M28.59818,44.26785l1.035-.0537s5.22072,2.75817,4.10931,14.39938l-.90639.44547Z" style="fill:#800a04"/><path d="M28.59818,44.26785s5.47769,3.67979,4.23794,14.79115l-6.20334-5.38911A40.91591,40.91591,0,0,0,28.59818,44.26785Z" style="fill:#a6180b"/><path d="M10.48622,61.52206l.00736,1.40416s4.19159,4.64668,13.99877,3.39872l-.00758-1.04345Z" style="fill:#800a04"/><path d="M18.04979,60.74654l-7.56357.77552s4.58657,5.10507,13.99855,3.75943Z" style="fill:#a6180b"/><path d="M26.23353,56.62381A1.287,1.287,0,1,1,24.894,55.39163,1.28692,1.28692,0,0,1,26.23353,56.62381Z" style="fill:#800a04"/><path d="M33.05523,62.04954a1.01526,1.01526,0,1,1-1.0567-.972A1.01525,1.01525,0,0,1,33.05523,62.04954Z" style="fill:#800a04"/><path d="M87.91849,55.91428l.27876,1.24038a8.19079,8.19079,0,0,1-9.829-1.189l1.42843-2.33275S83.28277,58.59539,87.91849,55.91428Z" style="fill:#baddd7"/><path d="M87.569,56.41862s-.97633-2.466.16979-2.64139c.94341-.14436.46705,1.70427,1.9795,1.50633s.67543-1.79616,1.23476-2.45311,1.237.3032,1.06665,1.46561a2.01967,2.01967,0,0,1-.00753,1.9017,2.17025,2.17025,0,0,1-1.94855,1.90553A2.45936,2.45936,0,0,1,87.569,56.41862Z" style="fill:#baddd7"/><path d="M67.74777,41.45655s-5.12445,9.46421-6.09083,11.677-.02252,3.40534,2.51074,4.52277,5.83808,2.572,7.66,3.41837,3.41523.80209,4.987-1.81487a78.5999,78.5999,0,0,0,3.995-7.03525c.8891-1.97366,1.43455-2.98032-1.0808-4.483S67.74777,41.45655,67.74777,41.45655Z" style="fill:#baddd7"/><path d="M71.23917,41.57029c2.12177,1.10591,8.1898,4.45694,9.27284,5.14281s2.70672.86641,4.18733-1.48016,4.69358-8.01438-.90207-11.82875c-6.5085-4.4366-12.92786,2.27225-14.04338,3.88654S68.50425,40.14489,71.23917,41.57029Z" style="fill:#baddd7"/><path d="M86.16406,37.59163a14.41091,14.41091,0,0,0-5.48343-3.44129c-3.18808-.798-5.68624,2.01241-6.72716,3.92075s-.90219,2.77569,1.80419,4.2677c2.21435,1.22077,5.77966,4.05146,7.89441,3.286a6.309,6.309,0,0,0,.46716-.649C85.07792,43.45627,86.792,40.488,86.16406,37.59163Z" style="fill:#a6ccc5"/><path d="M80.79488,39.0282a.73862.73862,0,1,1-.73862-.73862A.73867.73867,0,0,1,80.79488,39.0282Z" style="fill:#486962"/><path d="M84.52342,41.04623a.62339.62339,0,1,1-.62342-.6233A.6234.6234,0,0,1,84.52342,41.04623Z" style="fill:#486962"/><path d="M55.662,46.91284l-4.88-7.73478a1.27912,1.27912,0,1,0-2.11638,1.43376l5.37294,7.40069a3.33591,3.33591,0,0,0,2.0455,5.38058l.56084-.38-1.28609-1.89856.80383-1.76516,1.89047-.06L59.3393,51.188l.56074-.38a3.33575,3.33575,0,0,0-4.238-3.89519ZM49.51544,39.525a.42189.42189,0,1,1-.11268.5859A.42186.42186,0,0,1,49.51544,39.525Z" style="fill:#486962"/><path d="M54.28776,41.823l-1.90468-.00219.8923,1.45517-1.82347,1.20487-.493-.58455a1.80151,1.80151,0,0,0-.25124,1.47224,1.42729,1.42729,0,0,0,1.13208.7448.8101.8101,0,0,0,.09431,1.09844c.54242.55248,2.63223-.11458,3.52133-1.47915A2.87013,2.87013,0,0,0,54.28776,41.823Z" style="fill:#ceeeeb"/><path d="M54.06331,42.20326s4.5549-5.45939,13.68446-.74671V43.0395l-1.23729.42177S60.23963,39.966,55.57,42.92963a.90337.90337,0,0,1-1.27857-.31572Z" style="fill:#ceeeeb"/><path d="M77.648,74.75795l3.16163,2.18182,1.93.19733a1.25988,1.25988,0,0,1,1.12517,1.12523l.04157.40677H80.06266l-2.7949-2.22619a.64731.64731,0,0,1-.14446-.85124Z" style="fill:#66827c"/><path d="M77.648,74.75795s5.51061-8.96695-5.22583-13.43883l1.08782-1.637s11.666,3.84824,5.09126,15.73378Z" style="fill:#baddd7"/><path d="M63.21489,57.10186s-6.58444,12.55282-16.82373,3.83588l1.01334-1.19528s7.34216,8.19144,14.24969-4.357Z" style="fill:#ceeeeb"/><path d="M47.47763,59.79414,46.28719,61.2766A7.56388,7.56388,0,0,0,44.73575,64.7h0A1.25984,1.25984,0,0,1,43.532,65.74067l-.4088.012.0869-1.19629a7.56448,7.56448,0,0,1,1.98478-4.5809l.62988-.68267a.64737.64737,0,0,1,.85938-.08246Z" style="fill:#66827c"/><path d="M63.55118,54.13384c.86247-1.97484,4.83725-9.37738,6.09616-11.71231-1.14241-.58247-1.89951-.965-1.89951-.965s-5.12451,9.46427-6.09089,11.677c-.94055,2.15373-.071,3.34086,2.31191,4.433C63.06666,56.6889,62.89731,55.631,63.55118,54.13384Z" style="fill:#ceeeeb"/><path d="M79.54726,31.92105c-4.83917-.2336-8.92466,4.11251-9.79337,5.36968-.98267,1.4222-1.20263,2.55383.6287,3.77763A17.4018,17.4018,0,0,1,79.54726,31.92105Z" style="fill:#ceeeeb"/><path d="M76.4304,28.02754a7.10207,7.10207,0,0,0-1.05671-1.41708.74131.74131,0,1,0-.28573.32876,6.69382,6.69382,0,0,1,.97369,1.31525,5.44144,5.44144,0,0,1,.432,4.54428l.41065.13621A5.93966,5.93966,0,0,0,76.4304,28.02754Z" style="fill:#ceeeeb"/><path d="M77.89073,46.72305l-1.327,2.57825a.38154.38154,0,0,0,.67852.34915l1.31845-2.56175Z" style="fill:#a6ccc5"/><path d="M57.45945,33.68694H37.33439a2.89885,2.89885,0,0,1-2.853-2.3856l-.853-7.952a3.521,3.521,0,0,1,3.46533-4.14436H63.08205a2.94163,2.94163,0,0,1,2.94078,3.013l-.21389,8.81952a2.7155,2.7155,0,0,1-2.71464,2.64953H61.23663s-.933,1.7259.75631,4.18711C61.99294,37.874,58.16032,37.1607,57.45945,33.68694Z" style="fill:#a9e7ea"/><path d="M43.88036,28.285H43.1186v1.31148H41.81138V28.285h-2.7007v-.9305l2.77434-4.086H43.1186v3.9777h.76176Zm-2.069-1.03879V26.17274q0-.26826.02174-.779t.03471-.593h-.03471a4.8239,4.8239,0,0,1-.38526.69251l-1.15989,1.753Z" style="fill:#7ab3ad"/><path d="M48.76261,26.43246a4.41209,4.41209,0,0,1-.54315,2.45407,1.88456,1.88456,0,0,1-1.67282.79648,1.86274,1.86274,0,0,1-1.6512-.82243,4.34685,4.34685,0,0,1-.55629-2.42812,4.452,4.452,0,0,1,.54113-2.46923A2.10379,2.10379,0,0,1,48.202,24,4.3567,4.3567,0,0,1,48.76261,26.43246Zm-3.09462,0a4.92384,4.92384,0,0,0,.20119,1.66861.69689.69689,0,0,0,.67746.50417.704.704,0,0,0,.67509-.51074,4.78507,4.78507,0,0,0,.20771-1.662,4.772,4.772,0,0,0-.20985-1.67282.701.701,0,0,0-1.34821,0A4.91214,4.91214,0,0,0,45.668,26.43246Z" style="fill:#7ab3ad"/><path d="M53.99979,28.285H53.238v1.31148H51.93081V28.285H49.2301v-.9305l2.77435-4.086H53.238v3.9777h.76177Zm-2.069-1.03879V26.17274q0-.26826.02168-.779t.03471-.593h-.03471a4.82257,4.82257,0,0,1-.38521.69251l-1.15994,1.753Z" style="fill:#7ab3ad"/><path d="M54.64472,28.97747a.72524.72524,0,0,1,.19473-.54967.79.79,0,0,1,.567-.18614.76754.76754,0,0,1,.55612.19047.84095.84095,0,0,1-.00207,1.08417.754.754,0,0,1-.554.197.77573.77573,0,0,1-.5627-.19266A.72006.72006,0,0,1,54.64472,28.97747Z" style="fill:#7ab3ad"/><path d="M57.17248,28.97747a.72522.72522,0,0,1,.19468-.54967.79.79,0,0,1,.56708-.18614.76751.76751,0,0,1,.55607.19047.84093.84093,0,0,1-.00208,1.08417.75368.75368,0,0,1-.554.197.77587.77587,0,0,1-.56275-.19266A.72026.72026,0,0,1,57.17248,28.97747Z" style="fill:#7ab3ad"/><path d="M59.70019,28.97747a.72528.72528,0,0,1,.19473-.54967.78987.78987,0,0,1,.56708-.18614.76773.76773,0,0,1,.55613.19047A.841.841,0,0,1,61.016,29.5163a.7539.7539,0,0,1-.554.197.77562.77562,0,0,1-.56269-.19266A.72009.72009,0,0,1,59.70019,28.97747Z" style="fill:#7ab3ad"/></svg>